<svg width="64" height="64" viewBox="0 0 64 64" fill="none" xmlns="http://www.w3.org/2000/svg">
<g clip-path="url(#clip0_479_317)">
<path d="M63.5749 26.9775L57.1949 14.2125C56.9599 13.7427 56.6346 13.3238 56.2376 12.9797C55.8407 12.6356 55.3798 12.373 54.8814 12.207C54.383 12.041 53.8567 11.9749 53.3327 12.0123C52.8087 12.0497 52.2972 12.1899 51.8274 12.425L45.6099 15.5325L32.5124 12.0675C32.1763 11.9801 31.8235 11.9801 31.4874 12.0675L18.3899 15.5325L12.1724 12.425C11.7026 12.1899 11.1911 12.0497 10.6671 12.0123C10.1431 11.9749 9.61682 12.041 9.11839 12.207C8.61996 12.373 8.15911 12.6356 7.76216 12.9797C7.36521 13.3238 7.03992 13.7427 6.80489 14.2125L0.424891 26.975C0.189781 27.4448 0.0495163 27.9563 0.0121075 28.4804C-0.0253012 29.0044 0.0408783 29.5306 0.206867 30.029C0.372855 30.5275 0.635401 30.9883 0.979512 31.3853C1.32362 31.7822 1.74256 32.1075 2.21239 32.3425L8.96239 35.72L22.8349 45.6275C23.0394 45.7728 23.2692 45.8787 23.5124 45.94L39.5124 49.94C39.8475 50.0241 40.1986 50.0199 40.5316 49.9279C40.8645 49.8359 41.168 49.6592 41.4124 49.415L51.4124 39.415L55.1824 35.645L61.7874 32.3425C62.7356 31.8679 63.4566 31.0361 63.7917 30.0301C64.1269 29.024 64.0489 27.9261 63.5749 26.9775ZM49.8524 35.32L41.2499 28.43C40.8645 28.1214 40.3786 27.9662 39.8857 27.9944C39.3927 28.0225 38.9276 28.232 38.5799 28.5825C34.1274 33.0675 29.1649 32.5 25.9999 30.5L36.8099 20H44.7624L51.5649 33.6025L49.8524 35.32ZM39.3849 45.785L24.8549 42.1525L12.5549 33.3675L19.5549 19.3675L31.9999 16.07L34.4499 16.7175L23.1999 27.6375L23.1799 27.66C22.7564 28.0835 22.4334 28.5967 22.2348 29.1617C22.0361 29.7267 21.9669 30.3291 22.0321 30.9244C22.0974 31.5197 22.2955 32.0928 22.6119 32.6013C22.9282 33.1099 23.3547 33.5409 23.8599 33.8625C28.9999 37.145 35.2024 36.6125 40.0874 32.6125L46.9999 38.165L39.3849 45.785ZM32.9549 54.485C32.8468 54.9173 32.5975 55.3011 32.2465 55.5756C31.8955 55.85 31.463 55.9994 31.0174 56C30.853 56.0002 30.6893 55.98 30.5299 55.94L20.1024 53.3325C19.8588 53.2724 19.6288 53.1663 19.4249 53.02L12.8374 48.315C12.4323 47.997 12.1656 47.535 12.0927 47.0252C12.0197 46.5154 12.1462 45.9972 12.4459 45.5783C12.7455 45.1595 13.1951 44.8724 13.7012 44.7768C14.2072 44.6811 14.7306 44.7844 15.1624 45.065L21.4399 49.55L31.4999 52.06C32.0144 52.1887 32.4567 52.5165 32.7295 52.9713C33.0024 53.426 33.0834 53.9705 32.9549 54.485Z" fill="#81BA45"/>
</g>
<defs>
<clipPath id="clip0_479_317">
<rect width="64" height="64" fill="white"/>
</clipPath>
</defs>
</svg>
