<svg width="64" height="64" viewBox="0 0 64 64" fill="none" xmlns="http://www.w3.org/2000/svg">
<path d="M32.0002 29.3335C36.5602 29.3335 40.0002 25.8935 40.0002 21.3335C40.0002 16.7735 36.5602 13.3335 32.0002 13.3335C27.4402 13.3335 24.0002 16.7735 24.0002 21.3335C24.0002 25.8935 27.4402 29.3335 32.0002 29.3335ZM32.0002 18.6668C33.6002 18.6668 34.6668 19.7335 34.6668 21.3335C34.6668 22.9335 33.6002 24.0002 32.0002 24.0002C30.4002 24.0002 29.3335 22.9335 29.3335 21.3335C29.3335 19.7335 30.4002 18.6668 32.0002 18.6668ZM34.6668 32.0002H29.3335C21.9735 32.0002 16.0002 37.9735 16.0002 45.3335V46.6668C16.0002 48.8802 17.7868 50.6668 20.0002 50.6668H44.0002C46.2135 50.6668 48.0002 48.8802 48.0002 46.6668V45.3335C48.0002 37.9735 42.0268 32.0002 34.6668 32.0002ZM21.3335 45.3335C21.3335 40.9335 24.9335 37.3335 29.3335 37.3335H34.6668C39.0668 37.3335 42.6668 40.9335 42.6668 45.3335H21.3335ZM17.3335 29.3335C18.5868 29.3335 19.7335 29.0135 20.7202 28.4535C19.6018 26.6728 18.9177 24.6541 18.7231 22.5604C18.5286 20.4666 18.829 18.3564 19.6002 16.4002C18.9068 16.1602 18.1335 16.0002 17.3335 16.0002C13.4935 16.0002 10.6668 18.8268 10.6668 22.6668C10.6668 26.5068 13.4935 29.3335 17.3335 29.3335ZM16.2935 32.0002H14.6668C9.52016 32.0002 5.3335 36.1868 5.3335 41.3335V44.0002C5.3335 44.7468 5.92016 45.3335 6.66683 45.3335H10.6668C10.6668 40.1068 12.8268 35.3868 16.2935 32.0002ZM46.6668 29.3335C50.5068 29.3335 53.3335 26.5068 53.3335 22.6668C53.3335 18.8268 50.5068 16.0002 46.6668 16.0002C45.8402 16.0002 45.0935 16.1602 44.4002 16.4002C45.1713 18.3564 45.4718 20.4666 45.2772 22.5604C45.0827 24.6541 44.3986 26.6728 43.2802 28.4535C44.2668 29.0135 45.3868 29.3335 46.6668 29.3335ZM49.3335 32.0002H47.7068C49.4886 33.7334 50.9047 35.8065 51.8712 38.0967C52.8376 40.3869 53.3349 42.8477 53.3335 45.3335H57.3335C58.0802 45.3335 58.6668 44.7468 58.6668 44.0002V41.3335C58.6668 36.1868 54.4802 32.0002 49.3335 32.0002Z" fill="#81BA45"/>
</svg>
