<svg width="60" height="60" viewBox="0 0 60 60" fill="none" xmlns="http://www.w3.org/2000/svg">
<g clip-path="url(#clip0_479_324)">
<path fill-rule="evenodd" clip-rule="evenodd" d="M17.1429 0C16.7412 -1.51551e-06 16.3477 0.11286 16.0071 0.325714L7.43571 5.68286C7.12752 5.87548 6.87337 6.14333 6.69719 6.46121C6.521 6.77909 6.42856 7.13656 6.42856 7.5C6.42856 7.86344 6.521 8.22091 6.69719 8.53879C6.87337 8.85667 7.12752 9.12452 7.43571 9.31714L16.0071 14.6743C16.3477 14.8871 16.7412 15 17.1429 15H46.0714C48.0606 15 49.9682 14.2098 51.3747 12.8033C52.7813 11.3968 53.5714 9.48912 53.5714 7.5C53.5714 5.51088 52.7813 3.60322 51.3747 2.1967C49.9682 0.790176 48.0606 0 46.0714 0H17.1429ZM6.42857 18.75C5.71817 18.75 5.03686 19.0322 4.53454 19.5345C4.03221 20.0369 3.75 20.7182 3.75 21.4286V48.75C3.75 50.2286 4.95 51.4286 6.42857 51.4286C13.5943 51.4286 18.9257 52.7957 22.4614 54.4029C24.24 55.2086 25.5214 56.0571 26.3614 56.7943C27.12 57.4586 27.3471 57.8786 27.39 57.9643L27.3986 57.9729C27.5413 58.5536 27.8758 59.0735 28.3478 59.4405C28.8199 59.8076 29.402 60.0047 30 60C30.5973 60.0038 31.1784 59.8062 31.6496 59.4392C32.1208 59.0722 32.4546 58.5571 32.5971 57.9771L32.6057 57.9643C32.6486 57.8786 32.88 57.4586 33.6386 56.7943C34.4786 56.0571 35.76 55.2086 37.5386 54.4029C41.0743 52.7957 46.4057 51.4286 53.5714 51.4286C55.05 51.4286 56.25 50.2286 56.25 48.75V21.4286C56.25 20.7182 55.9678 20.0369 55.4655 19.5345C54.9631 19.0322 54.2818 18.75 53.5714 18.75C45.7371 18.75 39.6386 20.2414 35.3186 22.2043C33.4367 23.0277 31.6831 24.1174 30.1114 25.44L30 25.5386L29.8886 25.44C28.3185 24.1163 26.5663 23.0251 24.6857 22.2C20.3571 20.2414 14.2629 18.75 6.42857 18.75ZM35.3186 49.5257C34.3586 49.9629 33.4786 50.4243 32.6786 50.91V30.5143C32.7943 30.33 33.0643 29.9657 33.6386 29.4686C34.4786 28.7314 35.76 27.8829 37.5386 27.0771C40.62 25.6757 45.06 24.4629 50.8929 24.1671V46.1271C44.3357 46.4229 39.1329 47.7943 35.3186 49.5257ZM27.3214 50.9057V30.5143C27.0513 30.123 26.7282 29.7711 26.3614 29.4686C25.1804 28.4919 23.8675 27.6868 22.4614 27.0771C19.38 25.6757 14.94 24.4629 9.10714 24.1671V46.1271C15.6643 46.4229 20.8671 47.79 24.6814 49.5214C25.6443 49.9586 26.5243 50.42 27.3214 50.9057Z" fill="#81BA45"/>
</g>
<defs>
<clipPath id="clip0_479_324">
<rect width="60" height="60" fill="white"/>
</clipPath>
</defs>
</svg>
