<svg width="64" height="64" viewBox="0 0 64 64" fill="none" xmlns="http://www.w3.org/2000/svg">
<path fill-rule="evenodd" clip-rule="evenodd" d="M54.1572 12.7169C57.7888 16.5154 59.2269 21.7392 58.4718 26.6666H53.0457C53.86 23.0962 52.9455 19.1672 50.3022 16.4025C46.3898 12.3104 40.1502 12.3104 36.2378 16.4025L32.0002 20.8349L27.7624 16.4024C23.85 12.3102 17.6104 12.3102 13.698 16.4024C11.0547 19.1672 10.1402 23.0962 10.9545 26.6666H5.52853C4.77328 21.7392 6.21153 16.5152 9.84303 12.7167C15.4219 6.88174 24.2169 6.46049 30.2599 11.4534C30.7366 11.8477 31.1899 12.2695 31.6174 12.7167L32.0002 13.1171L32.3828 12.7169C32.8168 12.263 33.2702 11.8419 33.7403 11.4534C39.7834 6.46049 48.5783 6.88162 54.1572 12.7169ZM45.0177 37.3334H52.3964L32.0002 58.6666L11.6039 37.3334H18.9825L32.0002 50.949L45.0177 37.3334ZM24.0002 15.3705L17.0162 29.3334H5.33353V34.6666H20.3149L24.0002 27.296L32.0002 43.2961L36.3148 34.6666H58.6668V29.3334H38.9815L36.0002 23.3705L32.0002 31.368L24.0002 15.3705Z" fill="#81BA45"/>
</svg>
