<svg width="64" height="64" viewBox="0 0 64 64" fill="none" xmlns="http://www.w3.org/2000/svg">
<path d="M25.6334 8.4933C21.3894 8.4933 14.8828 10.9426 17.1454 26.1106C17.181 26.34 17.2232 26.5875 17.2721 26.8533C17.6854 29.1346 18.3228 32.6666 14.2668 35.5786C17.0254 37.8426 20.9548 40.1053 25.7294 41.0853C25.5405 42.1681 25.3038 43.242 25.0201 44.304C24.6321 45.728 23.8188 46.7373 22.3654 47.168C21.0854 47.5466 19.7441 47.8533 18.3708 48.168C18.017 48.248 17.6614 48.3298 17.3041 48.4133C15.5908 48.812 13.8441 49.2533 12.2961 49.8773C10.7441 50.504 9.30145 51.348 8.25878 52.6066C7.19744 53.8906 6.62945 55.5093 6.66811 57.5333C6.68145 58.1626 7.22011 58.6666 7.88144 58.6666H56.1188C56.7801 58.6666 57.3188 58.1626 57.3321 57.5333C57.3708 55.5093 56.8041 53.8906 55.7414 52.6066C54.7001 51.348 53.2561 50.5026 51.7054 49.8773C50.1561 49.252 48.4094 48.8106 46.6948 48.412L45.6308 48.168C44.2561 47.8533 42.9148 47.5466 41.6348 47.168C40.1814 46.7373 39.3681 45.728 38.9801 44.304C38.6412 43.0396 38.3714 41.7577 38.1721 40.464C41.8228 39.3653 45.7028 37.3906 49.7334 34.2373L49.7148 34.2186C47.8228 32.408 44.2761 29.0133 44.0241 20.9546C44.0241 9.85864 36.9494 0.106636 25.6334 8.4933Z" stroke="#81BA45" stroke-width="4" stroke-linejoin="round"/>
</svg>
